<svg width="59" height="59" viewBox="0 0 59 59" fill="none" xmlns="http://www.w3.org/2000/svg">
<path fill-rule="evenodd" clip-rule="evenodd" d="M0 29.5C0 13.2076 13.2076 0 29.5 0C45.7924 0 59 13.2076 59 29.5C59 45.7924 45.7924 59 29.5 59C13.2076 59 0 45.7924 0 29.5ZM21 20C21 19.4477 21.4477 19 22 19H25C25.5523 19 26 19.4477 26 20V40C26 40.5523 25.5523 41 25 41H22C21.4477 41 21 40.5523 21 40V20ZM34 19C33.4477 19 33 19.4477 33 20V40C33 40.5523 33.4477 41 34 41H37C37.5523 41 38 40.5523 38 40V20C38 19.4477 37.5523 19 37 19H34Z" fill="white"/>
</svg>
